<svg id="Layer_1" data-name="Layer 1" xmlns="http://www.w3.org/2000/svg" viewBox="0 0 1709 365.27"><title>OpenEBS logos </title><path d="M1380.87,133.22c10.6,2.57,19.7,6.95,27,15a34.37,34.37,0,0,1,9.39,23.52q.27,26.4,0,52.79c-.23,21.79-13.5,36.87-36.79,41.54a101,101,0,0,1-19.63,1.87c-62.17.14-124.34,0-186.51.17-4.18,0-5.45-1.05-5.44-5.35q.18-119.86,0-239.73c0-4.22,1.13-5.42,5.39-5.41,60.11.13,120.23,0,180.34.13,10.74,0,21.3,1.31,31.33,5.73,15.22,6.69,24.29,18.08,25,34.7a416.32,416.32,0,0,1-.56,48.31c-1.22,15.77-7.52,22.74-26.29,26C1383,132.69,1381.94,133,1380.87,133.22Zm-98.71,104.59c23,0,46,.2,69-.13a68.52,68.52,0,0,0,18.49-2.88c7.53-2.27,12-8.07,12.23-16,.39-14.64.63-29.31.21-43.95-.33-11.32-5.78-17.18-17-19.79a49.14,49.14,0,0,0-10.84-1.43c-49-.1-97.92,0-146.88-.14-3.77,0-4.68,1.35-4.66,4.85.11,24.78.16,49.55,0,74.32,0,4.43,1.53,5.3,5.59,5.27C1232.9,237.72,1257.53,237.81,1282.16,237.81Zm-2.31-114.13v-.39c24,0,48.06.27,72.09-.09,15.51-.23,24.37-8.7,24.52-22.36.1-9.82.15-19.65,0-29.46-.19-10.88-5.42-18-15.81-21.12a51.33,51.33,0,0,0-14.23-2.21c-46.16-.16-92.33,0-138.5-.18-4.14,0-5.21,1.35-5.18,5.3.16,21.54.07,43.09.08,64.63,0,5.84,0,5.87,5.82,5.88Z" fill="#060707"/><path d="M950,154.28v5.33c0,15.4,0,30.8,0,46.2.09,19.38,12.26,31.58,31.67,31.6q82.95.09,165.89,0c8.75,0,7.68-.95,7.75,7.75.05,6-.24,12,.09,18,.22,4-1.3,4.9-5.05,4.86-18.19-.17-36.38-.08-54.56-.08-40.49,0-81-.68-121.45.23-29,.66-54.59-21.45-57.68-48.58a69.27,69.27,0,0,1-.42-7.89q0-68.64,0-137.29c0-32.31,24.45-56.74,56.79-56.77,59,0,117.93,0,176.89-.1,4.13,0,5.71.94,5.5,5.32-.35,7.32-.17,14.67-.06,22,0,2.61-.85,3.84-3.53,3.66-1.31-.08-2.64,0-4,0q-83.39,0-166.77,0C965,48.62,954,57.22,950.59,72.3a36.69,36.69,0,0,0-.56,7.86c0,12.61.15,25.23-.12,37.84-.1,4.32,1.31,5.36,5.47,5.35q79.86-.19,159.73-.09c5.74,0,5.74,0,5.74,5.7,0,6.75-.23,13.5.09,20.24.19,4-1,5.19-5.13,5.17q-75.25-.19-150.49-.09Z" fill="#060707"/><path d="M1434.65,237.67h6.23q83.17,0,166.34,0c18.82,0,31-11.31,31.94-30.09a236.72,236.72,0,0,0-.29-26.37,28.61,28.61,0,0,0-28.9-26.89c-42.1-.08-84.19,0-126.29,0-9.67,0-19-1.71-27.53-6.45-16.77-9.32-28.11-23-29.5-42.55-1-14.26-1.38-28.88.62-43,3.59-25.21,27-44.36,53.16-44.5,56.91-.31,113.83-.08,170.74-.17,3.27,0,4.39,1.08,4.31,4.32-.17,7-.24,14.09,0,21.12.15,3.87-1.13,4.95-5,4.94q-79.87-.18-159.74-.05c-11.12,0-20.22,4.26-26.58,13.66-6.93,10.22-6.75,37.72.48,47.73,6.37,8.83,15.17,12.94,26.09,12.92,41.51-.06,83,0,124.53-.05,10.18,0,19.83,1.76,28.65,7,18.44,11,28.42,27.06,28.79,48.69.2,11.58.09,23.17,0,34.76-.18,30.22-24.48,55.12-54.67,55.24-59.7.25-119.4.06-179.1.13-3.1,0-4.49-.62-4.39-4.1C1434.81,255.48,1434.65,247,1434.65,237.67Z" fill="#060707"/><path d="M344.65,339.17c-10.36,0-20.14.05-29.91-.11-.82,0-2-1.35-2.33-2.32-.42-1.17-.15-2.6-.15-3.92V90c0-6.41,0-6.42,6.43-6.42q63.35,0,126.68,0c16,0,29.8,5.23,41.23,16.6,9.14,9.09,13.48,20.14,13.55,32.82q.21,42.66,0,85.33c-.15,26.54-22.32,48.78-50.08,49.44-26.23.62-52.49.19-78.73.22-7.33,0-14.66.15-22-.06-3.67-.1-4.8,1.24-4.77,4.86.13,20.23.06,40.46.06,60.69Zm0-163.84c0,19.64,0,39.28,0,58.92,0,3,.27,5,4.14,5,31.07,0,62.15.24,93.22,0,13.64-.11,25.28-11.88,25.42-25.45q.39-38-.07-76.08A24.18,24.18,0,0,0,464,126.6c-6-10.53-16.08-14-27.53-14.1-28.88-.13-57.75,0-86.63-.12-4,0-5.27,1.33-5.23,5.34C344.75,136.92,344.65,156.12,344.65,175.33Z" fill="#060707"/><path d="M622.07,192.67c-24.19,0-48.39.09-72.59-.08-4.35,0-6,1.19-5.77,5.71.34,8.35.09,16.71.1,25.07,0,10.68,6,16.82,16.87,16.88,18.77.1,37.54,0,56.31,0,20.39,0,40.77.09,61.15-.08,3.69,0,4.86,1.1,4.72,4.73-.25,6.45-.17,12.91,0,19.36.06,2.88-1.06,3.78-3.88,3.77-42.23-.08-84.47.12-126.7-.21-18.62-.14-35-12.41-39.26-28.39a45.06,45.06,0,0,1-1.33-11.29q-.15-46.63,0-93.27a50.51,50.51,0,0,1,46.08-50.45c7.72-.69,15.52-.69,23.28-.66,24,.09,48.12-.38,72.12.74,22,1,41.28,18.31,45.61,38.9a50.25,50.25,0,0,1,.79,10c.07,17.89-.12,35.78.14,53.67.07,4.63-1.58,5.63-5.84,5.6C669.88,192.58,646,192.67,622.07,192.67Zm-16.69-28.94c18.92,0,37.83-.09,56.74.08,3.77,0,5.27-.91,5.08-4.89-.3-6.14,0-12.31-.09-18.47-.11-14.71-10.93-26.92-25.6-27.25q-35.82-.8-71.68,0c-14.68.34-25.61,12.36-26,27-.16,6.3.14,12.62-.09,18.91-.14,3.74,1.35,4.69,4.89,4.66C567.56,163.66,586.47,163.73,605.38,163.73Z" fill="#060707"/><path d="M901.82,195.57c0,22.44-.08,44.88.08,67.32,0,3.95-1,5.4-5.12,5.22-7.46-.32-15-.3-22.43,0-3.93.16-4.94-1.14-4.93-5,.13-40,.08-80.08.08-120.12,0-17.72-9.33-29.3-26.93-30-24.3-1-48.69-.88-73,.12-16.43.68-25.86,12.14-25.91,28.64-.1,33.74,0,67.47,0,101.2,0,6.89-.1,13.79,0,20.68.06,3.06-.72,4.53-4.18,4.45-8.21-.21-16.42-.17-24.63,0-3,.06-3.7-1.08-3.7-3.86.08-44.15-.13-88.3.15-132.44.15-23.17,19.29-43.68,43.22-47.22a70.94,70.94,0,0,1,10.06-.89c28.16-.07,56.32-.18,84.48,0,19.22.13,34.48,8.32,45.54,24a37.83,37.83,0,0,1,7.08,21.84c.13,22,0,44,0,66Z" fill="#060707"/><path d="M887.9,339.27c-5.13,0-10.26.14-15.38-.12-1.06,0-2-1.62-3.06-2.49,1-.73,2-2.08,3-2.1,9.08-.17,18.17-.08,27.25-.11,5.89,0,8-2.09,8.19-7.79.17-6.17-2.15-8.9-8-9-7-.14-14.07,0-21.11-.07-8.15-.13-11.18-3.68-11.11-12.78.05-8,3.58-11.74,11.32-11.78,9.09-.05,18.17,0,27.26,0,1.83,0,4,0,3.34,2.58-.24.95-2.18,2.07-3.37,2.1-8.49.18-17,.06-25.5.12-5.2,0-7.8,2.52-7.85,7.31s2.54,7.35,7.7,7.39c6.74,0,13.48,0,20.22,0,8.52,0,12.38,3.83,12.41,12.23,0,1.47,0,2.94,0,4.4-.17,6-4.21,10-10.33,10.12C897.87,339.33,892.89,339.27,887.9,339.27Z" fill="#060707"/><path d="M1099.76,326.24c0,5.28,0,10.56,0,15.84-.06,5.5-3,9.17-8.28,9.48-6.72.4-13.48.26-20.23.14-.89,0-1.77-1.34-2.65-2.05,1-.81,1.89-2.27,2.88-2.31,5.27-.25,10.57,0,15.83-.24a9.92,9.92,0,0,0,5.57-1.87c1.09-.9,1.39-3.06,1.42-4.68,0-.4-2.42-1.16-3.74-1.19-5.13-.15-10.27,0-15.4-.1-6.06-.12-9.86-3.89-10-9.9-.11-4.55-.08-9.1,0-13.64.1-6.15,3.61-10,9.7-10.23,7.33-.23,14.67,0,22-.1,2.44,0,3,1.16,2.94,3.25C1099.72,314.51,1099.76,320.38,1099.76,326.24Zm-5-3.75h0a65.69,65.69,0,0,0-.14-9.21c-.17-1.17-1.9-2.94-3-3-5-.33-10-.23-14.95-.11-3.81.1-6,2.1-6,6.06s-.06,7.93,0,11.88c.08,4.64,1.95,6.6,6.73,6.77,4.1.15,8.22-.17,12.31.09s5.51-1.51,5.13-5.43C1094.62,327.21,1094.8,324.84,1094.8,322.49Z" fill="#060707"/><path d="M1318.93,339.27c-5.13,0-10.26.09-15.38,0a9.58,9.58,0,0,1-9.73-9.75q-.19-13.39,0-26.8a9.38,9.38,0,0,1,9.37-9.62c10.54-.16,21.09-.13,31.63,0,1.1,0,2.17,1.5,3.25,2.31-1.16.76-2.3,2.16-3.47,2.19-9.07.18-18.16.07-27.24.12-6.24,0-8,1.85-8,8.2,0,7,0,14.06,0,21.09.05,5.48,2,7.44,7.4,7.48,9.08.05,18.16,0,27.24,0,1.76,0,4.14-.67,4.09,2.44s-2.5,2.25-4.21,2.29C1328.89,339.34,1323.91,339.28,1318.93,339.27Z" fill="#060707"/><path d="M839,293.58v45.7c-5.93,0-11.73-.23-17.5.05-15.28.73-17.78-3-17-16.92.12-2.33,0-4.68,0-7,.14-6.12,3.67-9.76,9.87-9.94,5.12-.14,10.24-.19,15.36,0,3.26.13,4.58-1.1,4.35-4.3-.1-1.45.07-2.93,0-4.38C833.92,293.29,835.49,292.32,839,293.58Zm-4.92,28.95h0c0-2.93,0-5.86,0-8.78,0-2.5-.85-3.74-3.6-3.65-4.83.14-9.66,0-14.49,0-3.93,0-5.9,2.15-6,6s-.07,7.9,0,11.85c.07,4.54,1.71,6.48,6.23,6.77,4.23.27,8.5-.08,12.72.2s5.49-1.52,5.14-5.4C834,327.23,834.12,324.87,834.12,322.53Z" fill="#060707"/><path d="M418,339.22c-11.74,0-23.29.14-34.84-.07a9.09,9.09,0,0,1-8.51-8.65c-.37-9.5-.43-19,0-28.53.24-5.54,4.46-8.88,10.08-8.94,10.1-.09,20.21-.1,30.31.06,1.19,0,2.37,1.3,3.55,2-1.18.88-2.34,2.48-3.53,2.5-8.93.22-17.87.1-26.8.14-6.32,0-8.32,2.07-8.35,8.48q-.06,10.11,0,20.21c.05,6,2.16,8.07,8.29,8.09,8.93,0,17.87.08,26.8,0C418.2,334.42,419.23,335.61,418,339.22Z" fill="#060707"/><path d="M1126.14,325.07c-3.23,0-6.46.09-9.68,0-3-.11-5.18.11-5.08,4,.08,3.61,1,6.05,5.11,6.05l15.83,0a8.32,8.32,0,0,1,3,.13c.85.37,1.44,1.37,2.14,2.1-.65.61-1.3,1.75-2,1.76-7.77.1-15.56.35-23.31-.13-3.64-.23-5.92-3-5.9-7,0-5.57,0-11.15,0-16.72.05-6,3.43-9.59,9.45-9.83q7.7-.3,15.4,0c6.07.24,9.77,4.11,9.73,10.13-.07,11.12,1.48,9.27-9.09,9.46C1130,325.09,1128,325.07,1126.14,325.07Zm-3.25-4.67c2.48,0,5,.14,7.43,0,2-.16,5,1.23,5.23-2.68.2-3.38-.61-6.72-4.18-7.14a65.55,65.55,0,0,0-15.65,0c-3.55.43-4.4,3.83-4.22,7.16.22,3.87,3.23,2.47,5.28,2.65S1120.85,320.4,1122.89,320.4Z" fill="#060707"/><path d="M1575.19,325.07c-3.51,0-7,.07-10.55,0-2.67-.08-4.58.31-4.51,3.71.06,3.18.3,6.15,4.31,6.29,5.57.21,11.14.1,16.71.13a8.27,8.27,0,0,1,3,.13c.86.36,1.45,1.36,2.16,2.08-.65.62-1.29,1.77-1.95,1.77-7.76.11-15.55.36-23.29-.12-3.6-.22-5.95-2.84-5.9-6.94.07-5.71,0-11.43,0-17.15,0-5.43,3.33-9.13,8.85-9.43s10.86-.27,16.27,0c5.84.28,9.47,4.14,9.44,10-.07,11.52,1.65,9.34-9.33,9.58C1578.71,325.1,1577,325.07,1575.19,325.07Zm-3.07-4.68h8.76a1.06,1.06,0,0,0,.44,0c1-.45,2.39-.69,2.76-1.44,1.69-3.39-.59-8.24-4.32-8.55a72.25,72.25,0,0,0-14.85.06c-3.7.46-5,3.69-4.7,7.31.29,3.88,3.3,2.42,5.35,2.6S1569.93,320.4,1572.12,320.39Z" fill="#060707"/><path d="M783.54,325.07c-3.37,0-6.74,0-10.11,0-2.49,0-4.7-.09-4.65,3.52.06,3.35.18,6.4,4.51,6.51,5.13.13,10.26.06,15.4.08a15.56,15.56,0,0,1,3.93.11c.9.24,1.61,1.21,2.4,1.85-.72.71-1.43,2-2.16,2-7.62.13-15.26.34-22.87-.07-3.89-.22-6.29-2.86-6.28-7.12,0-5.57-.08-11.14,0-16.71.1-5.95,3.51-9.55,9.48-9.79,5.13-.2,10.27-.19,15.39,0,6,.22,9.31,3.77,9.43,9.8.19,9.8.19,9.8-9.64,9.8Zm-3-4.68c3.07,0,6.15.13,9.21-.08,1.09-.07,2.69-.72,3.09-1.57,1.39-2.91-.7-7.84-3.86-8.15a72,72,0,0,0-16.14,0c-3.54.45-4.27,3.95-3.94,7.31.36,3.59,3.15,2.24,5.07,2.41C776.11,320.54,778.32,320.4,780.51,320.39Z" fill="#060707"/><path d="M666.7,339.25c-8.05,0-15.94.11-23.83-.05-4.18-.08-6.72-2.73-6.84-7-.16-5.85-.17-11.72,0-17.57.15-5.48,3.53-8.93,9.13-9.17,5.26-.24,10.55-.24,15.8,0,6,.26,9.29,3.95,9.38,9.85.14,9.72.14,9.72-9.65,9.73-5,0-9.95.06-14.92,0-2.77-.05-4.79.12-4.69,3.87.09,3.51.54,6.19,4.78,6.22,6,0,12,.1,18,0C666.51,335.09,667.77,335.87,666.7,339.25ZM641.64,320.4c6.47,0,12.72,0,19,0,4.51,0,6.23-2.31,4.06-6.27a9.13,9.13,0,0,0-5.66-3.79c-3.08-.64-6.4-.19-9.61-.18C642.22,310.18,640.51,312.24,641.64,320.4Z" fill="#060707"/><path d="M1493.12,322.7c0,4.4-.09,8.79,0,13.18.07,2.37-.63,3.47-3.2,3.43-7.47-.11-14.94.08-22.4-.1a9.12,9.12,0,0,1-9.09-9.3c-.08-4.83,0-9.66,0-14.49,0-5.84,3.55-9.77,9.36-9.94,7.47-.21,14.94,0,22.41-.08,2.42,0,3,1.13,2.92,3.24C1493.06,313.33,1493.12,318,1493.12,322.7Zm-5.5-12.5c-6.67,0-12.66-.19-18.62.08-3.4.16-5.18,2.59-5.28,5.94-.13,4.1-.12,8.21,0,12.31.1,3.83,2.25,6,6,6.15,5,.19,10,.28,14.94,0a4,4,0,0,0,2.78-2.77C1487.74,324.93,1487.62,317.91,1487.62,310.2Z" fill="#060707"/><path d="M1058.18,339.22c-9.26,0-17.75.21-26.23-.08-4.86-.16-8.17-4.11-8.27-9.11s-.09-10,0-14.95c.08-5.58,3.29-9.35,8.79-9.56,7.61-.3,15.24-.17,22.86,0,1,0,2.72,1.5,2.73,2.33C1058.24,318.09,1058.18,328.32,1058.18,339.22Zm-5.35-16.7h0c0-3.07-.06-6.15,0-9.22.06-2.2-.76-3.21-3.06-3.16-5,.09-10-.06-14.94.05-3.64.08-5.74,2.06-5.84,5.75-.11,4.1,0,8.21,0,12.31s2.16,6.31,6.14,6.49c4.39.21,8.79,0,13.18.2,3.73.19,4.93-1.42,4.61-4.95C1052.64,327.52,1052.83,325,1052.83,322.52Z" fill="#060707"/><path d="M573.38,322.4c0,4.53-.09,9.06,0,13.59.07,2.47-.86,3.36-3.32,3.32-7.3-.1-14.62.06-21.92-.08-5.67-.11-9.35-4.1-9.42-9.89,0-4.67,0-9.35,0-14,.06-5.76,3.65-9.66,9.49-9.83,7.3-.21,14.62,0,21.93-.09,2.54,0,3.29,1,3.23,3.41C573.29,313.33,573.38,317.87,573.38,322.4Zm-5.23-12.18c-6.75,0-12.86-.21-18.95.09-3.13.15-4.92,2.38-5,5.64-.06,4.09,0,8.18,0,12.27s2.12,6.31,6.07,6.48c5,.21,9.94.25,14.89,0,1-.05,2.83-1.48,2.86-2.32C568.25,325.17,568.15,317.91,568.15,310.22Z" fill="#060707"/><path d="M443.64,339.24c-3.07,0-6.15.15-9.21,0a9,9,0,0,1-8.63-8.74c-.17-5.26-.15-10.53,0-15.79s3.41-8.88,8.67-9.14c6.27-.32,12.57-.3,18.84,0,5.39.23,8.89,4,9.07,9.4.16,5,.17,9.94,0,14.9-.21,5.74-4.07,9.31-9.93,9.45-2.92.07-5.85,0-8.77,0Zm.49-29.09c-2.19,0-4.38-.07-6.57,0-4.56.17-6.56,2.21-6.65,6.81-.07,3.65,0,7.3,0,10.95-.07,4.06,1.9,6.37,5.87,6.76,2.75.26,5.54.21,8.31.21,11.2,0,11.83-.63,11.83-11.85C456.89,310.12,456.89,310.12,444.13,310.15Z" fill="#060707"/><path d="M1363.29,339.24c-3.22,0-6.45.16-9.65,0a9.13,9.13,0,0,1-8.7-9.19c-.08-5,0-9.94,0-14.92,0-5.37,3.35-9.29,8.74-9.57a180.08,180.08,0,0,1,19.3,0c5.21.3,8.34,4.13,8.4,9.37q.09,7.47,0,14.92c-.06,5.56-3.67,9.21-9.31,9.4-2.92.1-5.85,0-8.77,0Zm0-4.49c2.34,0,4.68.12,7,0,3.8-.24,5.91-2.44,6.06-6.19.17-4.08.21-8.18,0-12.26s-2.55-6.07-6.56-6.11c-4.23,0-8.47-.08-12.7,0-4.64.1-6.65,2.06-6.94,6.63-.09,1.6,0,3.21,0,4.82C1350.05,334.61,1350.34,334.9,1363.25,334.75Z" fill="#060707"/><path d="M1215.45,339.27c-2.79,0-5.57.06-8.35,0-5.79-.17-9.38-3.55-9.56-9.23q-.24-7.69,0-15.39c.17-5.46,3.62-9,9.17-9.16,5.85-.21,11.73-.18,17.59,0s9.47,3.74,9.62,9.68c.12,5,.14,10,0,14.95-.18,5.36-3.86,8.93-9.22,9.15C1221.61,339.36,1218.53,339.26,1215.45,339.27Zm.52-29.12c-2.19,0-4.38-.06-6.56,0-4.65.15-6.6,2.12-6.73,6.72,0,1.46,0,2.92,0,4.38,0,13.57.09,13.65,13.62,13.64,11.89,0,12.41-.52,12.41-12.2C1228.7,310.13,1228.7,310.13,1216,310.15Z" fill="#060707"/><path d="M966.2,339.26c-2.93,0-5.86.11-8.78,0-5.28-.24-8.77-3.66-8.91-8.86s-.13-10.54,0-15.81c.11-5.07,3.21-8.72,8.3-9a182.91,182.91,0,0,1,19.31,0c5.28.26,8.4,3.94,8.49,9.29q.13,7.46,0,14.92c-.1,6-3.54,9.37-9.62,9.51-2.93.07-5.85,0-8.78,0Zm.59-29.12c-1.9,0-3.8,0-5.7,0-5.55.09-7.41,1.9-7.5,7.31,0,1.17,0,2.34,0,3.51,0,13.94,0,13.94,13.81,13.93,11.56,0,12.2-.64,12.2-12.11C979.59,310.33,979.38,310.13,966.79,310.14Z" fill="#060707"/><path d="M722.1,338c1.08-2,1.75-4.39,3.31-5.83,6.9-6.35,14.06-12.42,21.14-18.58.87-.75,1.84-1.39,3.76-2.82a44.67,44.67,0,0,0-4.5-.66c-6.59,0-13.19.09-19.78-.13-1.11,0-2.18-1.5-3.27-2.31,1-.74,2-2.12,2.94-2.13,10-.16,19.92-.1,30-.1,1.41,3.66,1,6.41-2.13,9-6.31,5.24-12.34,10.82-18.53,16.2a30.22,30.22,0,0,1-3.67,2.36l.9,2c3.08,0,6.17,0,9.25,0,4.11,0,8.22-.1,12.31.14.89.06,1.7,1.41,2.54,2.17-.76.66-1.52,1.88-2.3,1.89-10.23.13-20.45.09-30.68.09Z" fill="#060707"/><path d="M1643.9,339.27c-3.67,0-7.34.13-11-.09-1-.06-1.84-1.22-2.76-1.87.9-.69,1.78-1.93,2.7-2,6-.19,12-.2,18-.09,4,.07,5.81-1.39,5.83-5.68s-1.85-5.67-5.86-5.52c-4.68.18-9.38.16-14.07,0-6.35-.23-8.6-3.15-8.44-10.61.11-5.21,3.07-8,8.8-8s11.74-.14,17.59.09c1.33.05,2.61,1.31,3.92,2-1.39.65-2.75,1.79-4.16,1.86-5,.24-10,.13-15,.12-3.56,0-5.81,1-5.84,5.26s2.43,5.11,5.9,5.09c4.54,0,9.09-.08,13.63.06,6.9.21,9,2.75,8.85,10.63-.07,6.1-2.68,8.65-8.94,8.71C1650.06,339.3,1647,339.28,1643.9,339.27Z" fill="#060707"/><path d="M1518.41,338.72c-3.92,1.35-5.44.27-5.31-3.68.2-6.45,0-12.91.07-19.36.09-6.29,3.85-10.09,10.15-10.24q7.7-.18,15.39,0c5.27.12,9.39,3.13,9.6,7.84.39,8.46.11,16.94.11,25.68H1543c0-7.23,0-14.23,0-21.24,0-6-1.6-7.56-7.52-7.61-3.37,0-6.75-.07-10.12,0-4.69.12-6.62,2.06-6.69,6.77-.08,5.86,0,11.73,0,17.59C1518.6,335.94,1518.48,337.37,1518.41,338.72Z" fill="#060707"/><path d="M1393.07,339h-4.56c0-8.95-.29-17.7.13-26.41.2-4.16,4.09-7,8.73-7.14,5.56-.2,11.13-.22,16.69,0a9.24,9.24,0,0,1,9.36,9.55c.1,6.88.15,13.76-.09,20.64a4.57,4.57,0,0,1-2.49,3.44c-2.82.73-2.82-1.56-2.82-3.56,0-6.15.06-12.3,0-18.45,0-5-2-6.87-6.92-7-3.66-.07-7.32-.08-11,0-4.51.12-6.37,2-6.44,6.46-.11,7.16-.12,14.34-.17,21.51C1393.5,338.24,1393.38,338.36,1393.07,339Z" fill="#060707"/><path d="M594.15,338.63c0-8.53-.13-16.86.05-25.19a7.35,7.35,0,0,1,6.86-7.43,121.49,121.49,0,0,1,21-.08c4.54.38,6.89,4,7,8.74.09,6.88-.07,13.77.07,20.65.06,3.32-1,4.74-5.06,3.33,0-6.3,0-12.84,0-19.38,0-7.6-1.58-9.14-9.3-9.16-2.49,0-5,0-7.47,0-6.22.06-8,1.85-8,8.21,0,5.71-.1,11.43,0,17.14C599.29,339,597.9,340,594.15,338.63Z" fill="#060707"/><path d="M504,325.2c0,3.66.19,7.34-.13,11-.09,1.08-1.61,2-2.48,3.06-.85-1.06-2.38-2.09-2.42-3.18-.25-6.14-.07-12.3-.16-18.45-.07-5.58-1.92-7.41-7.37-7.49-3.22,0-6.45,0-9.67,0-5.7.07-7.52,1.89-7.58,7.74s0,11.73,0,17.59c0,1.91.16,4.35-2.74,3.62-1-.25-2.22-2.34-2.26-3.62-.22-6.88-.17-13.77-.08-20.65.08-5.44,3.5-9.08,9-9.31s11.14-.23,16.7,0c5.72.22,9.07,3.88,9.18,9.61C504.05,318.46,504,321.83,504,325.2Z" fill="#060707"/><path d="M1168.89,338.7c0-12.71-.08-25.16,0-37.6,0-4.12,4-7.76,8.47-8,3.93-.21,7.88-.05,12-.05.93,2.62.49,4.14-2.41,4.23-2.19.07-4.47-.27-6.57.19a11.37,11.37,0,0,0-5.19,2.67c-.84.78-1.09,2.78-.75,4,.19.68,2.12,1.16,3.29,1.22,3.21.17,6.46-.09,9.66.16.93.08,1.77,1.29,2.66,2-.9.87-1.73,2.39-2.7,2.48a61.06,61.06,0,0,1-9.66.09c-2.9-.17-3.91,1.05-3.88,3.83.1,7.18.09,14.37,0,21.55C1173.84,339.35,1173.7,339.39,1168.89,338.7Z" fill="#060707"/><path d="M510.58,316.15c0-4.69-.16-9.39.11-14.07.07-1.1,1.58-2.12,2.43-3.18.91,1,2.54,1.92,2.59,2.94.15,3,1.51,3.74,4.19,3.61a61.8,61.8,0,0,1,9.23.09c1,.09,1.87,1.46,2.81,2.25-1,.77-1.88,2.11-2.91,2.21a76.08,76.08,0,0,1-9.67.09c-2.46-.1-3.4.89-3.34,3.33.1,5,0,10,0,15,0,4.13,2.13,6.24,6.14,6.49,2.34.14,4.72-.11,7,.23,1,.14,1.81,1.32,2.71,2-.87.71-1.7,2-2.61,2a74.15,74.15,0,0,1-10.11,0,9.24,9.24,0,0,1-8.59-9.4C510.51,325.25,510.58,320.7,510.58,316.15Z" fill="#060707"/><path d="M940.74,310.12c-3.91,0-7.71.12-11.49-.05-2.83-.12-4,.88-3.87,3.78.16,4.68,0,9.38.06,14.07s1.95,6.68,6.61,7c2.34.15,4.71-.08,7,.24.81.11,1.47,1.34,2.2,2.06-.74.68-1.44,1.92-2.21,2a78.89,78.89,0,0,1-11,0,8.37,8.37,0,0,1-7.7-8.21q-.25-14.3,0-28.59c0-1.13,1.57-2.24,2.41-3.36.86,1,2.43,2.06,2.47,3.13.11,2.88,1.57,3.41,4,3.33,2.79-.08,5.58.11,8.36,0C940.73,305.22,942.07,306.27,940.74,310.12Z" fill="#060707"/><path d="M1430,316.59c0-4.69-.15-9.38.11-14.06.06-1.22,1.18-3.11,2.2-3.41,2.35-.71,2.94,1.13,2.83,3.14-.15,2.6,1.33,3.22,3.59,3.17a79.8,79.8,0,0,1,9.66.12c1,.09,1.82,1.55,2.73,2.38-.87.72-1.69,2-2.62,2.07a50.47,50.47,0,0,1-8.78.06c-3.36-.25-4.83.82-4.64,4.4.25,4.39,0,8.79.08,13.19.08,5.11,2,7,7.27,7.28,2,.1,4.15-.18,6.13.2.94.17,1.66,1.47,2.48,2.27-.8.62-1.59,1.73-2.43,1.77a74.15,74.15,0,0,1-10.54,0,8.92,8.92,0,0,1-8-8.93c-.12-4.54,0-9.08,0-13.63Z" fill="#060707"/><path d="M1240.27,324.66c0-3.22,0-6.43,0-9.65.11-5.45,3.38-9.16,8.82-9.51a125.73,125.73,0,0,1,13.59,0c.87,0,1.69,1.36,2.53,2.09-.9.82-1.74,2.23-2.72,2.34-2.89.31-5.84.1-8.76.12-6.54,0-8.07,1.53-8.09,7.92,0,5.85,0,11.69,0,17.54,0,2-.08,4.28-2.86,3.55-1.07-.28-2.3-2.21-2.41-3.48C1240.06,332,1240.27,328.31,1240.27,324.66Z" fill="#060707"/><path d="M996.76,338.6c-3.7,1.37-5.14.42-5.08-3.1.12-6.87,0-13.76.07-20.64.09-5.71,3.51-9.17,9.31-9.4,4.24-.17,8.5-.17,12.73.07,1,.06,2,1.36,3,2.09-1.07.82-2.09,2.23-3.23,2.34-3.34.32-6.72.05-10.09.14-4.58.13-6.63,2.17-6.69,6.8C996.7,324.06,996.76,331.23,996.76,338.6Z" fill="#060707"/><path d="M676.86,338.64c0-8.54-.15-16.89.06-25.22.11-4.26,3.81-7.62,8.57-7.91a131.65,131.65,0,0,1,13.62,0c.92,0,1.79,1.28,2.68,2-.89.86-1.72,2.37-2.68,2.46-3.49.3-7,.05-10.54.16-4.45.13-6.44,2-6.54,6.49-.14,6.3-.13,12.61,0,18.91C682.07,339.07,680.53,339.92,676.86,338.64Z" fill="#060707"/><path d="M1596.57,338.66c0-8.65-.19-17.14.07-25.61.13-4.15,4.09-7.34,8.88-7.57,4.39-.21,8.8-.16,13.18,0,1,0,1.84,1.23,2.76,1.89-.88.88-1.68,2.43-2.64,2.53-3.19.33-6.44.1-9.66.14-5.56.08-7.44,1.86-7.52,7.34-.09,6-.13,12,0,18C1601.73,338.94,1600.35,340,1596.57,338.66Z" fill="#060707"/><path d="M1505.82,339.06h-5.16V319.24c0-3.22-.08-6.45,0-9.67,0-1.71-.82-4.08,2.37-4.13,3.38,0,2.71,2.44,2.73,4.35.06,7.18,0,14.36,0,21.55Z" fill="#060707"/><path d="M586.37,305.92v32.7c-3.11,1.3-4.87.81-4.83-3.11.08-8.8.1-17.6,0-26.39C581.48,305.46,583.12,304.88,586.37,305.92Z" fill="#060707"/><path d="M715.12,338.67c-3.48,1.15-5,.54-5-2.89.1-8.93-.07-17.86.15-26.78,0-1.2,1.6-2.36,2.46-3.54.8,1.08,2.26,2.15,2.28,3.25C715.19,318.64,715.12,328.57,715.12,338.67Z" fill="#060707"/><path d="M1506.3,294.47a17.45,17.45,0,0,1-3.4,2.67c-.29.14-1.43-1.48-2.18-2.3l4.06-2.38Z" fill="#060707"/><path d="M713.07,291.88c1,1.72,1.94,2.69,1.84,3.53s-1.57,1.85-2.2,1.71a3.39,3.39,0,0,1-2.29-2.14C710.32,294.3,711.69,293.41,713.07,291.88Z" fill="#060707"/><path d="M584.49,298.4l-2.8-3.22c.83-.71,1.59-1.84,2.52-2,.66-.12,2.18,1,2.2,1.64C586.44,295.73,585.48,296.68,584.49,298.4Z" fill="#060707"/><path d="M293.37,141.79c0,23,.19,46-.05,69a55.33,55.33,0,0,1-43.88,53.77,54.2,54.2,0,0,1-11.64,1.21c-2.72,0-5.44,0-8.16.06-34.13.95-68.26.15-102.39.4-9.88.07-19.76-.08-29.63.12-6.84.14-13.61-.13-20.16-2.09C57.29,258.2,44,245.17,38.09,224.84a51.31,51.31,0,0,1-1.88-14c0-5.47-.06-10.95-.06-16.43Q36.08,140,36,85.51c0-5.92-.13-11.85.29-17.74A53.86,53.86,0,0,1,46.64,39.33,54.5,54.5,0,0,1,83,16.93c5.48-.91,11-.44,16.51-.72,18.55-1,37.11-.25,55.67-.39s37.19,0,55.79,0c9.28,0,18.56-.23,27.83,0a54.67,54.67,0,0,1,36.48,14.8,53.17,53.17,0,0,1,17.06,30.88,67.28,67.28,0,0,1,1,11.07c.09,23.08.05,46.15.05,69.23ZM165.91,236.08v0c19.4,0,38.8,0,58.2,0a88.21,88.21,0,0,0,11.94-.74A29,29,0,0,0,255.89,224a25.55,25.55,0,0,0,5.7-14.36c.14-2.82,0-5.66,0-8.49q-.11-10.08-.24-20.15c-.06-4.91-.16-9.83-.23-14.75-.09-5.75-.16-11.51-.25-17.26-.07-5.12-.16-10.23-.23-15.35-.09-5.51-.16-11-.25-16.54-.07-5.24-.17-10.47-.23-15.71-.1-7.36-.12-14.71-.29-22.07a62,62,0,0,0-.73-8.93,28.7,28.7,0,0,0-8.66-16.58c-5.72-5.36-12.65-7.75-20.35-8.13-1.08,0-2.18.4-3.27.43-1.84,0-3.67-.1-5.51-.11q-11.1-.07-22.2-.09-47.57,0-95.15,0a78.16,78.16,0,0,0-10.14.69A29.29,29.29,0,0,0,75.51,55.8C70.77,60.94,67.83,66.89,67.78,74c0,5.8.13,11.59.22,17.39.07,5.35.16,10.71.23,16.07.09,5.71.16,11.43.25,17.14.07,5.28.16,10.55.23,15.83.09,5.55.16,11.11.25,16.66.07,5.16.16,10.32.23,15.47.09,5.6.18,11.19.24,16.79,0,4.6-.08,9.2.15,13.79a57.74,57.74,0,0,0,1.29,10.77c3.76,15.28,16,22.11,29.59,22.59.49,0,1-.52,1.51-.52,3.07,0,6.15.1,9.23.11Z" fill="#060707"/></svg>