<svg id="Layer_1" data-name="Layer 1" xmlns="http://www.w3.org/2000/svg" viewBox="0 0 1740.31 382.97"><title>OpenEBS logos </title><path d="M1400.18,148.23c10.6,2.56,19.7,7,27,15a34.42,34.42,0,0,1,9.39,23.53q.26,26.38,0,52.78c-.22,21.8-13.49,36.87-36.78,41.54a101.09,101.09,0,0,1-19.64,1.87c-62.17.14-124.33,0-186.5.17-4.19,0-5.46-1.05-5.45-5.35q.2-119.86,0-239.73c0-4.22,1.13-5.42,5.39-5.41,60.12.13,120.23.05,180.35.13,10.74,0,21.29,1.31,31.32,5.73,15.22,6.7,24.3,18.08,25,34.7a416.52,416.52,0,0,1-.57,48.32c-1.21,15.76-7.52,22.74-26.29,26C1402.33,147.69,1401.26,148,1400.18,148.23Zm-98.71,104.58c23,0,46,.2,69-.13A68.59,68.59,0,0,0,1389,249.8c7.53-2.26,12-8.07,12.22-16,.4-14.64.64-29.31.22-43.95-.33-11.32-5.78-17.17-17-19.79a49.23,49.23,0,0,0-10.85-1.43c-49-.09-97.92,0-146.88-.14-3.77,0-4.68,1.35-4.66,4.85.11,24.78.16,49.55,0,74.32,0,4.43,1.54,5.3,5.59,5.27C1252.22,252.73,1276.84,252.81,1301.47,252.81Zm-2.31-114.12v-.39c24,0,48.07.26,72.1-.1,15.5-.23,24.37-8.7,24.51-22.36.11-9.82.16-19.65,0-29.46-.2-10.87-5.43-18-15.81-21.12a51.39,51.39,0,0,0-14.23-2.21c-46.17-.16-92.34,0-138.51-.18-4.14,0-5.2,1.35-5.18,5.3.16,21.54.07,43.09.08,64.64,0,5.83,0,5.86,5.83,5.87Z" fill="#f15a29"/><path d="M969.32,169.29v5.32c0,15.4-.06,30.8,0,46.2.09,19.38,12.25,31.58,31.67,31.6q82.93.09,165.89,0c8.75,0,7.67-.95,7.74,7.75,0,6-.23,12,.09,18,.22,4-1.3,4.9-5,4.86-18.19-.17-36.38-.08-54.57-.08-40.48,0-81-.68-121.44.24-29,.65-54.59-21.46-57.69-48.59a69.15,69.15,0,0,1-.42-7.89q0-68.64,0-137.29c0-32.31,24.44-56.74,56.79-56.76,59-.06,117.92,0,176.89-.11,4.13,0,5.71.94,5.5,5.32-.36,7.32-.18,14.67-.06,22,0,2.61-.85,3.85-3.54,3.66-1.31-.08-2.63,0-4,0q-83.4,0-166.78,0c-16.06,0-27.13,8.61-30.51,23.69a36.69,36.69,0,0,0-.56,7.86c-.06,12.61.15,25.23-.13,37.84-.09,4.32,1.32,5.36,5.48,5.35q79.86-.19,159.73-.08c5.73,0,5.74,0,5.74,5.69,0,6.75-.23,13.51.09,20.24.19,4-1,5.19-5.14,5.18q-75.24-.21-150.49-.09Z" fill="#f15a29"/><path d="M1454,252.67h6.22q83.18,0,166.34,0c18.82,0,31-11.31,31.94-30.08a236.9,236.9,0,0,0-.29-26.38,28.61,28.61,0,0,0-28.89-26.89c-42.1-.08-84.2,0-126.3,0-9.66,0-19-1.71-27.52-6.44-16.77-9.33-28.12-23-29.51-42.56-1-14.26-1.38-28.88.63-43,3.59-25.21,27-44.36,53.16-44.5,56.91-.31,113.82-.08,170.73-.17,3.28,0,4.39,1.08,4.31,4.32-.17,7-.23,14.09,0,21.12.14,3.87-1.14,4.95-5,4.95q-79.86-.2-159.73-.06c-11.12,0-20.23,4.26-26.59,13.66-6.92,10.22-6.74,37.72.48,47.73,6.38,8.83,15.18,12.94,26.09,12.93,41.51-.07,83,0,124.53-.06,10.19,0,19.84,1.76,28.66,7,18.43,11,28.41,27.06,28.78,48.69.2,11.58.09,23.17,0,34.76-.18,30.22-24.48,55.12-54.67,55.24-59.7.25-119.4.06-179.1.14-3.09,0-4.48-.63-4.39-4.11C1454.12,270.48,1454,262,1454,252.67Z" fill="#f15a29"/><path d="M364,354.17c-10.36,0-20.14.06-29.92-.1-.82,0-2-1.36-2.33-2.32-.42-1.18-.14-2.61-.14-3.93q0-121.4,0-242.79c0-6.41,0-6.42,6.43-6.42q63.33,0,126.67,0c16,0,29.8,5.23,41.24,16.61,9.14,9.08,13.48,20.13,13.54,32.81q.21,42.67,0,85.33c-.15,26.54-22.31,48.78-50.08,49.44-26.23.62-52.48.19-78.72.22-7.33,0-14.67.15-22,0-3.68-.11-4.8,1.23-4.78,4.85.14,20.23.07,40.46.07,60.69Zm0-163.84c0,19.64,0,39.28,0,58.92,0,3,.27,5,4.14,5,31.08,0,62.15.24,93.22,0,13.65-.11,25.28-11.88,25.42-25.45q.41-38-.06-76.07a24.2,24.2,0,0,0-3.38-11.13c-6-10.53-16.08-14-27.53-14.1-28.87-.13-57.75,0-86.63-.12-4,0-5.26,1.33-5.22,5.34C364.06,151.92,364,171.12,364,190.33Z" fill="#f15a29"/><path d="M641.39,207.67c-24.2,0-48.4.09-72.59-.08-4.36,0-5.95,1.19-5.77,5.71.33,8.35.08,16.72.1,25.07,0,10.68,6,16.82,16.87,16.88,18.77.1,37.54,0,56.31,0,20.38,0,40.77.09,61.15-.07,3.68,0,4.85,1.09,4.71,4.72-.25,6.45-.16,12.91,0,19.36.06,2.88-1.07,3.78-3.89,3.77-42.23-.08-84.46.12-126.7-.21-18.61-.14-35-12.41-39.26-28.39A45.05,45.05,0,0,1,531,243.17c-.11-31.09-.07-62.18-.06-93.26A50.52,50.52,0,0,1,577,99.45c7.72-.69,15.52-.69,23.28-.66,24,.09,48.12-.38,72.12.74,22,1,41.28,18.31,45.61,38.9a50.25,50.25,0,0,1,.78,10c.08,17.89-.12,35.78.14,53.67.07,4.64-1.58,5.63-5.83,5.6C689.19,207.58,665.29,207.67,641.39,207.67ZM624.7,178.73c18.91,0,37.83-.09,56.74.08,3.77,0,5.26-.91,5.07-4.89-.29-6.14,0-12.31-.08-18.47-.11-14.71-10.94-26.92-25.6-27.25q-35.83-.79-71.69,0c-14.68.33-25.61,12.35-26,27-.16,6.3.14,12.62-.09,18.91-.14,3.75,1.34,4.69,4.89,4.66C586.87,178.66,605.78,178.73,624.7,178.73Z" fill="#f15a29"/><path d="M921.14,210.57c0,22.44-.09,44.88.08,67.32,0,3.95-1,5.41-5.12,5.22-7.47-.32-15-.3-22.44,0-3.93.16-4.94-1.14-4.92-5q.18-60.06.07-120.12c0-17.72-9.32-29.3-26.93-30-24.29-1-48.69-.89-73,.11-16.42.68-25.85,12.14-25.9,28.64-.1,33.74,0,67.47,0,101.2,0,6.9-.09,13.79,0,20.68.06,3.06-.72,4.54-4.17,4.45-8.21-.21-16.43-.17-24.64,0-3,.06-3.7-1.07-3.69-3.86.07-44.15-.13-88.29.15-132.44.14-23.17,19.29-43.68,43.21-47.22a71,71,0,0,1,10.07-.89c28.16-.06,56.32-.18,84.47,0,19.23.13,34.48,8.32,45.55,24A37.89,37.89,0,0,1,921,144.57c.14,22,.05,44,.05,66Z" fill="#f15a29"/><path d="M312.68,156.79c0,23,.19,46-.05,69a55.33,55.33,0,0,1-43.87,53.77,54.29,54.29,0,0,1-11.65,1.21c-2.72,0-5.44,0-8.16.06-34.12.95-68.26.15-102.39.4-9.87.07-19.76-.08-29.63.12-6.83.14-13.6-.12-20.15-2.09C76.6,273.2,63.3,260.17,57.41,239.84a50.91,50.91,0,0,1-1.89-14q0-8.22-.06-16.44-.08-54.46-.13-108.94c0-5.91-.12-11.85.29-17.74A53.79,53.79,0,0,1,66,54.33a54.52,54.52,0,0,1,36.35-22.4c5.48-.91,11-.44,16.5-.72,18.55-.95,37.12-.25,55.67-.39s37.2,0,55.8,0c9.27,0,18.56-.23,27.83,0a54.63,54.63,0,0,1,36.47,14.8,53.2,53.2,0,0,1,17.06,30.88,67.39,67.39,0,0,1,1,11.07c.08,23.08,0,46.16,0,69.23ZM185.23,251.08v0c19.4,0,38.79,0,58.19,0a89.87,89.87,0,0,0,11.94-.75A29,29,0,0,0,275.21,239a25.54,25.54,0,0,0,5.69-14.36c.14-2.82,0-5.66,0-8.49q-.1-10.08-.24-20.15c-.07-4.91-.16-9.83-.24-14.74L280.2,164,280,148.62l-.24-16.54c-.08-5.24-.17-10.47-.24-15.71-.09-7.35-.11-14.71-.28-22.06a62.08,62.08,0,0,0-.74-8.94,28.68,28.68,0,0,0-8.66-16.58c-5.71-5.36-12.64-7.75-20.35-8.13-1.08,0-2.17.4-3.27.43-1.83,0-3.67-.1-5.51-.11-7.39,0-14.79-.09-22.19-.09q-47.58,0-95.15,0a78.31,78.31,0,0,0-10.15.69A29.29,29.29,0,0,0,94.82,70.8C90.09,75.94,87.14,81.89,87.1,89c0,5.8.13,11.59.21,17.39l.24,16.07.24,17.14L88,155.42l.24,16.67.24,15.46c.08,5.6.17,11.19.24,16.79,0,4.6-.08,9.2.15,13.79a57.11,57.11,0,0,0,1.28,10.78c3.76,15.27,16,22.1,29.59,22.58.5,0,1-.52,1.51-.52,3.08,0,6.15.1,9.23.11Z" fill="#f15a29"/></svg>